<svg xmlns="http://www.w3.org/2000/svg" width="100" height="125" viewBox="0 0 56 53">
    <defs>
        <linearGradient id="linear-gradient" x1="0.886" y1="0.793" x2="0.099" y2="0.337" gradientUnits="objectBoundingBox">
            <stop offset="0" stop-color="#0665bd"/>
            <stop offset="1" stop-color="#621a77"/>
        </linearGradient>
    </defs>
    <path d="M24.485,2.542a6,6,0,0,1,7.031,0L52.453,17.68A6,6,0,0,1,54.642,24.4L46.656,48.862A6,6,0,0,1,40.952,53h-25.9a6,6,0,0,1-5.7-4.138L1.358,24.4A6,6,0,0,1,3.547,17.68Z" fill="url(#linear-gradient)"/>
    <svg xmlns="http://www.w3.org/2000/svg" x="6" y="9" width="45" height="45" viewBox="0 0 22 35">
        <path fill="#FFDC2A" d="M585.235049,804.936524 L586.585786,803.585786 C587.366835,802.804738 588.633165,802.804738 589.414214,803.585786 C590.195262,804.366835 590.195262,805.633165 589.414214,806.414214 L588.063476,807.764951 C589.284872,809.537034 590,811.685003 590,814 C590,820.075132 585.075132,825 579,825 C572.924868,825 568,820.075132 568,814 C568,808.607861 571.879764,804.121889 577,803.181376 L577,801 L576,801 C574.895431,801 574,800.104569 574,799 C574,797.895431 574.895431,797 576,797 L582,797 C583.104569,797 584,797.895431 584,799 C584,800.104569 583.104569,801 582,801 L581,801 L581,803.181376 C582.549708,803.466035 583.985783,804.075476 585.235049,804.936524 Z M579,821 C582.865993,821 586,817.865993 586,814 C586,810.134007 582.865993,807 579,807 C575.134007,807 572,810.134007 572,814 C572,817.865993 575.134007,821 579,821 Z M581,814 C581,815.104569 580.104569,816 579,816 C577.895431,816 577,815.104569 577,814 L577,812 C577,810.895431 577.895431,810 579,810 C580.104569,810 581,810.895431 581,812 L581,814 Z" transform="translate(-568 -797)"/>
    </svg>
</svg>