<svg xmlns="http://www.w3.org/2000/svg" x="0px" y="0px" viewBox="0 0 60 75" style="enable-background:new 0 0 60 60;" xml:space="preserve">
    <path d="M45.4140625,7.4050293c-1.875-1.875-4.9257813-1.875-6.8007813,0l-4.0400391,4.0400391l-3.5917969,3.5913086  L10.7822266,35.2365723c-0.0206909,0.0206909-0.0337524,0.0462646-0.0523682,0.0684204  c-0.0181885,0.0215454-0.0342407,0.0429077-0.0506592,0.0661011c-0.0689697,0.0977783-0.1256104,0.2023926-0.1558838,0.3164063  c-0.0001831,0.0006104-0.0006714,0.0010986-0.0008545,0.001709l-2.0411987,7.7557983  c-0.0240479,0.0532837-0.0303345,0.1127319-0.0448608,0.1704712l-2.4031982,9.1313477  c-0.0908203,0.34375,0.0078125,0.7099609,0.2597656,0.9614258C6.4824219,53.8981934,6.7382813,54.0012207,7,54.0012207  c0.0849609,0,0.1699219-0.0107422,0.2548828-0.0327148l8.9544678-2.3563843c0.0005493-0.000061,0.0010376,0,0.0015869-0.000061  c0.0194702-0.0012817,0.0350342-0.0123291,0.0541992-0.0146484L24.3125,49.4797363  c0.022583-0.0059204,0.0384521-0.0222168,0.0602417-0.0296021c0.062561-0.0209961,0.1174316-0.0529175,0.1750488-0.0859985  c0.059082-0.0340576,0.1160889-0.0662842,0.1660156-0.1107178c0.015564-0.0137329,0.0360718-0.019165,0.0508423-0.0339355  l20.2001953-20.2001953l3.5908203-3.5913086l4.0400391-4.0400391C53.5009766,20.4831543,54,19.2751465,54,17.9880371  c0-1.2875977-0.4990234-2.4956055-1.4042969-3.4003906L45.4140625,7.4050293z M32.3955078,16.4504395l2.8847656-2.8842773  l4.8702393,4.8704834L19.526123,39.0610352c-1.7243652-1.5280762-3.7658081-2.7374268-6.1599121-3.5803223L32.3955078,16.4504395z   M12.1854248,37.2265015c2.6741943,0.8630371,4.9037476,2.1338501,6.6573486,3.8781128  c0.0090942,0.0098267,0.0119019,0.0227661,0.0214844,0.0323486c0.0096436,0.0096436,0.022644,0.0125122,0.0325928,0.0216675  c1.7443237,1.7536011,3.0150757,3.9830933,3.8778076,6.6571045l-5.7802734,1.5212402  c-0.7646484-4.2841797-3.9338989-5.9439087-6.3215332-6.3630981L12.1854248,37.2265015z M10.1585693,44.9281006  c1.4040527,0.2207642,4.281189,1.1408691,4.8892212,4.9211426l-6.6444702,1.7486572L10.1585693,44.9281006z M43.5507813,27.6052246  L24.5205078,46.635498c-0.8427734-2.394165-2.052124-4.4358521-3.5803223-6.1604004L41.5645752,19.850708l4.8699951,4.8702393  L43.5507813,27.6052246z M51.1816406,19.973877l-3.3330078,3.3330078L36.6943359,12.1520996l3.3330078-3.3330078  c1.0957031-1.0947266,2.8769531-1.0947266,3.9726563,0l7.1816406,7.1826172C51.7089844,16.5290527,52,17.2346191,52,17.9880371  C52,18.7409668,51.7089844,19.4465332,51.1816406,19.973877z"/>
</svg>