<svg xmlns="http://www.w3.org/2000/svg" width="100" height="125" viewBox="0 0 56 53">
    <defs>
        <linearGradient id="linear-gradient" x1="0.886" y1="0.793" x2="0.099" y2="0.337" gradientUnits="objectBoundingBox">
            <stop offset="0" stop-color="#0665bd"/>
            <stop offset="1" stop-color="#621a77"/>
        </linearGradient>
    </defs>
    <path d="M24.485,2.542a6,6,0,0,1,7.031,0L52.453,17.68A6,6,0,0,1,54.642,24.4L46.656,48.862A6,6,0,0,1,40.952,53h-25.9a6,6,0,0,1-5.7-4.138L1.358,24.4A6,6,0,0,1,3.547,17.68Z" fill="url(#linear-gradient)"/>
    <svg xmlns="http://www.w3.org/2000/svg" x="6" y="9" width="45" height="45" viewBox="0 0 100 125">
        <path fill="#FFDC2A" d="M82.87,90.55c0,5.61-1.5,6.87-6.14,5.57-4.79-1.34-9.06-3.86-13.32-6.36s-8.31-5.16-12.33-7.94a1.6,1.6,0,0,0-2.15,0A184.45,184.45,0,0,1,29,94.15a25,25,0,0,1-7.16,2.66c-2.08.35-3.09-.36-3.48-2.45-0.63-3.46.09-6.83,0.7-10.19a156.56,156.56,0,0,1,5-19.34,2.17,2.17,0,0,0-1-2.91C16.51,57.25,10,52.53,4.31,46.76A20.09,20.09,0,0,1,.64,42c-1.19-2.3-.75-3.76,1.54-5a25.68,25.68,0,0,1,8.41-2.33,156.66,156.66,0,0,1,22.28-1.38A1.5,1.5,0,0,0,34.63,32c2-7.32,4-14.62,7.55-21.39a18.42,18.42,0,0,1,4.44-6c2.47-2,4.76-1.93,7.11.25,2.54,2.36,4.08,5.38,5.49,8.45a110.08,110.08,0,0,1,6.33,18.65,1.59,1.59,0,0,0,1.85,1.42c8,0.15,16,.34,23.9,1.61a27,27,0,0,1,6.09,1.55c2.82,1.16,3.26,2.51,1.71,5.11A24.41,24.41,0,0,1,95.61,46c-5.7,5.92-12.23,10.87-18.72,15.85a1.54,1.54,0,0,0-.63,2,166.11,166.11,0,0,1,5.93,21.35A37.1,37.1,0,0,1,82.87,90.55Z" />
    </svg>
</svg>