<svg xmlns="http://www.w3.org/2000/svg" width="100" height="125" viewBox="0 0 56 53"><defs><linearGradient id="a" x1=".886" y1=".793" x2=".099" y2=".337" gradientUnits="objectBoundingBox"><stop offset="0" stop-color="#0665bd"/><stop offset="1" stop-color="#621a77"/></linearGradient></defs><path d="M24.485 2.542a6 6 0 017.031 0L52.453 17.68a6 6 0 012.189 6.72l-7.986 24.462A6 6 0 0140.952 53h-25.9a6 6 0 01-5.7-4.138L1.358 24.4a6 6 0 012.189-6.72z" fill="url(#a)"/><svg xmlns="http://www.w3.org/2000/svg" x="6" y="9" width="45" height="45" viewBox="0 0 22 35"><path fill="#FFDC2A" d="M17.235 7.937l1.35-1.351a2 2 0 012.83 2.828l-1.352 1.351A10.95 10.95 0 0122 17c0 6.075-4.925 11-11 11S0 23.075 0 17c0-5.392 3.88-9.878 9-10.819V4H8a2 2 0 010-4h6a2 2 0 010 4h-1v2.181a10.94 10.94 0 014.235 1.756zM11 24a7 7 0 100-14 7 7 0 000 14zm2-7a2 2 0 01-4 0v-2a2 2 0 014 0v2z"/></svg></svg>