<svg xmlns="http://www.w3.org/2000/svg" height="100" width="100"><path d="M96.423 89.975H46.797l50.47-50.477c3.645-3.645 3.645-9.575 0-13.22L79.417 8.429c-1.42-1.42-3.186-2.249-5.028-2.562.003.001-8.167.431-16.057 1.328-2.425.274-4.449 1.648-5.86 3.058L2.733 59.995c-3.645 3.645-3.645 9.572 0 13.217l17.849 17.85a9.25 9.25 0 006.587 2.724c.194 0 12.049-.234 12.172-.24.598-.056 2.033-.219 2.033-.219h55.048a1.675 1.675 0 10.001-3.352zM43.279 88.2a5.622 5.622 0 01-7.933 0L17.497 70.353c-2.188-2.191-2.188-5.749 0-7.934l25.424-25.423L68.625 62.85 43.279 88.2zM65.267 9.865l5.046-.413-27.469 27.47-4.208-.425L65.267 9.865zM5.378 70.572a5.617 5.617 0 010-7.937l26.853-26.853 5.971.641-23.35 23.35c-3.645 3.645-3.645 9.579 0 13.22l16.966 16.966-.776.015h-4.597c-1.217-.157-2.345-.681-3.22-1.559L5.378 70.572z"/></svg>