<svg xmlns="http://www.w3.org/2000/svg" viewBox="0 0 60 75"><path d="M45.414 7.405a4.814 4.814 0 00-6.8 0l-4.04 4.04-3.593 3.591-20.199 20.2c-.02.021-.034.047-.052.069a.998.998 0 00-.207.383v.001L8.48 43.445c-.024.053-.03.113-.045.17l-2.403 9.132a.998.998 0 001.222 1.222l8.954-2.357h.002c.02-.001.035-.012.054-.015l8.047-2.117c.023-.006.039-.022.06-.03.063-.02.118-.053.176-.086.059-.034.116-.066.166-.11.015-.014.036-.02.05-.035l20.2-20.2 3.592-3.591 4.04-4.04a4.774 4.774 0 001.404-3.4 4.775 4.775 0 00-1.404-3.4l-7.182-7.183zM32.396 16.45l2.884-2.884 4.87 4.87-20.624 20.625c-1.724-1.528-3.766-2.737-6.16-3.58l19.03-19.03zm-20.21 20.777c2.674.863 4.903 2.133 6.657 3.878.009.01.012.022.021.032.01.01.023.012.033.022 1.744 1.753 3.015 3.983 3.878 6.657l-5.78 1.521c-.765-4.284-3.935-5.944-6.322-6.363l1.512-5.747zm-2.027 7.701c1.404.22 4.28 1.141 4.889 4.921l-6.645 1.749 1.756-6.67zM43.55 27.605l-19.03 19.03c-.843-2.394-2.053-4.435-3.58-6.16l20.624-20.624 4.87 4.87-2.884 2.884zm7.63-7.631l-3.332 3.333-11.155-11.155 3.333-3.333a2.813 2.813 0 013.973 0l7.182 7.183A2.79 2.79 0 0152 17.988a2.79 2.79 0 01-.818 1.986z"/></svg>